<svg fill="none" height="48" viewBox="0 0 48 48" width="48" xmlns="http://www.w3.org/2000/svg" xmlns:xlink="http://www.w3.org/1999/xlink"><filter id="a" color-interpolation-filters="sRGB" filterUnits="userSpaceOnUse" height="54" width="48" x="0" y="-3"><feFlood flood-opacity="0" result="BackgroundImageFix"/><feBlend in="SourceGraphic" in2="BackgroundImageFix" mode="normal" result="shape"/><feColorMatrix in="SourceAlpha" result="hardAlpha" type="matrix" values="0 0 0 0 0 0 0 0 0 0 0 0 0 0 0 0 0 0 127 0"/><feOffset dy="-3"/><feGaussianBlur stdDeviation="1.5"/><feComposite in2="hardAlpha" k2="-1" k3="1" operator="arithmetic"/><feColorMatrix type="matrix" values="0 0 0 0 0 0 0 0 0 0 0 0 0 0 0 0 0 0 0.1 0"/><feBlend in2="shape" mode="normal" result="effect1_innerShadow_3051_46847"/><feColorMatrix in="SourceAlpha" result="hardAlpha" type="matrix" values="0 0 0 0 0 0 0 0 0 0 0 0 0 0 0 0 0 0 127 0"/><feOffset dy="3"/><feGaussianBlur stdDeviation="1.5"/><feComposite in2="hardAlpha" k2="-1" k3="1" operator="arithmetic"/><feColorMatrix type="matrix" values="0 0 0 0 1 0 0 0 0 1 0 0 0 0 1 0 0 0 0.1 0"/><feBlend in2="effect1_innerShadow_3051_46847" mode="normal" result="effect2_innerShadow_3051_46847"/><feColorMatrix in="SourceAlpha" result="hardAlpha" type="matrix" values="0 0 0 0 0 0 0 0 0 0 0 0 0 0 0 0 0 0 127 0"/><feMorphology in="SourceAlpha" operator="erode" radius="1" result="effect3_innerShadow_3051_46847"/><feOffset/><feComposite in2="hardAlpha" k2="-1" k3="1" operator="arithmetic"/><feColorMatrix type="matrix" values="0 0 0 0 0.0627451 0 0 0 0 0.0941176 0 0 0 0 0.156863 0 0 0 0.24 0"/><feBlend in2="effect2_innerShadow_3051_46847" mode="normal" result="effect3_innerShadow_3051_46847"/></filter><filter id="b" color-interpolation-filters="sRGB" filterUnits="userSpaceOnUse" height="42" width="36" x="6" y="5.25"><feFlood flood-opacity="0" result="BackgroundImageFix"/><feColorMatrix in="SourceAlpha" result="hardAlpha" type="matrix" values="0 0 0 0 0 0 0 0 0 0 0 0 0 0 0 0 0 0 127 0"/><feMorphology in="SourceAlpha" operator="erode" radius="1.5" result="effect1_dropShadow_3051_46847"/><feOffset dy="2.25"/><feGaussianBlur stdDeviation="2.25"/><feComposite in2="hardAlpha" operator="out"/><feColorMatrix type="matrix" values="0 0 0 0 0.141176 0 0 0 0 0.141176 0 0 0 0 0.141176 0 0 0 0.1 0"/><feBlend in2="BackgroundImageFix" mode="normal" result="effect1_dropShadow_3051_46847"/><feBlend in="SourceGraphic" in2="effect1_dropShadow_3051_46847" mode="normal" result="shape"/></filter><linearGradient id="c" gradientUnits="userSpaceOnUse" x1="24" x2="26" y1=".000001" y2="48"><stop offset="0" stop-color="#fff" stop-opacity="0"/><stop offset="1" stop-color="#fff" stop-opacity=".12"/></linearGradient><linearGradient id="d"><stop offset="0" stop-color="#fff" stop-opacity=".8"/><stop offset="1" stop-color="#fff" stop-opacity=".5"/></linearGradient><linearGradient id="e" gradientUnits="userSpaceOnUse" x1="31.3081" x2="27.5474" xlink:href="#d" y1="8.50673" y2="22.5418"/><linearGradient id="f" gradientUnits="userSpaceOnUse" x1="24.6947" x2="20.4639" xlink:href="#d" y1="14.3909" y2="30.1804"/><linearGradient id="g" gradientUnits="userSpaceOnUse" x1="18.0814" x2="13.3805" xlink:href="#d" y1="20.2751" y2="37.819"/><linearGradient id="h" gradientUnits="userSpaceOnUse" x1="24" x2="24" y1="0" y2="48"><stop offset="0" stop-color="#fff" stop-opacity=".12"/><stop offset="1" stop-color="#fff" stop-opacity="0"/></linearGradient><clipPath id="i"><rect height="48" rx="12" width="48"/></clipPath><g filter="url(#a)"><g clip-path="url(#i)"><rect fill="#444ce7" height="48" rx="12" width="48"/><path d="m0 0h48v48h-48z" fill="url(#c)"/><g clip-rule="evenodd" fill-rule="evenodd" filter="url(#b)"><path d="m34.9406 12.3006-7.2651-1.9467c-.5015-.1344-.9081.1776-.9081.6968v7.5214c0 .5193.4066 1.0491.9081 1.1835l7.2651 1.9467c.5015.1344.9081-.1776.9081-.6968v-7.5214c0-.5193-.4066-1.0491-.9081-1.1835zm-7.2651-4.7672c-2.0062-.53756-3.6325.71037-3.6325 2.7873v7.5214c0 2.077 1.6263 4.1965 3.6325 4.734l7.2651 1.9467c2.0062.5376 3.6325-.7104 3.6325-2.7873v-7.5214c0-2.077-1.6263-4.1965-3.6325-4.73403z" fill="url(#e)" opacity=".5"/><path d="m29.2354 18.4281-9.0814-2.4333c-.5015-.1344-.9081.1776-.9081.6968v9.4017c0 .5193.4066 1.0491.9081 1.1835l9.0814 2.4334c.5015.1344.9081-.1776.9081-.6969v-9.4017c0-.5192-.4066-1.0491-.9081-1.1835zm-9.0814-5.2538c-2.0062-.5376-3.6325.7103-3.6325 2.7873v9.4017c0 2.077 1.6263 4.1965 3.6325 4.734l9.0814 2.4334c2.0062.5375 3.6325-.7104 3.6325-2.7874v-9.4017c0-2.0769-1.6263-4.1964-3.6325-4.734z" fill="url(#f)" opacity=".7"/><path d="m23.5302 24.5557-10.8977-2.9201c-.5015-.1343-.9081.1776-.9081.6969v11.282c0 .5193.4066 1.0491.9081 1.1835l10.8977 2.92c.5015.1344.9081-.1775.9081-.6968v-11.282c0-.5193-.4066-1.0492-.9081-1.1835zm-10.8977-5.7406c-2.0062-.5375-3.6325.7104-3.6325 2.7874v11.282c0 2.077 1.6263 4.1965 3.6325 4.7341l10.8977 2.92c2.0062.5375 3.6325-.7104 3.6325-2.7874v-11.282c0-2.077-1.6263-4.1965-3.6325-4.7341z" fill="url(#g)"/></g></g><rect height="46" rx="11" stroke="url(#h)" stroke-width="2" width="46" x="1" y="1"/></g></svg>